HIERARCHY
ROOT SpineBase
{
  OFFSET 0.000000 0.000000 0.000000
  CHANNELS 6 Xposition Yposition Zposition Zrotation Xrotation Yrotation
  JOINT SpineMid
  {
    OFFSET 0.000000 31.956165 0.000000
    CHANNELS 3 Zrotation Xrotation Yrotation
    JOINT SpineShoulder
    {
      OFFSET -0.033475 23.701840 -0.780543
      CHANNELS 3 Zrotation Xrotation Yrotation
      JOINT Neck
      {
        OFFSET -0.016140 7.829193 -0.585822
        CHANNELS 3 Zrotation Xrotation Yrotation
        JOINT Head
        {
          OFFSET 5.739487 11.716109 7.187940
          CHANNELS 3 Zrotation Xrotation Yrotation
          End Site
          {
            OFFSET 0 0 0
          }
        }
      }
      JOINT ShoulderLeft
      {
        OFFSET -12.186372 -2.798428 -10.943573
        CHANNELS 3 Zrotation Xrotation Yrotation
        JOINT ElbowLeft
        {
          OFFSET -11.061261 -25.270264 -4.700878
          CHANNELS 3 Zrotation Xrotation Yrotation
          JOINT WristLeft
          {
            OFFSET -1.439656 -23.375570 -4.549988
            CHANNELS 3 Zrotation Xrotation Yrotation
            JOINT HandLeft
            {
              OFFSET -0.298989 -7.834877 -0.214594
              CHANNELS 3 Zrotation Xrotation Yrotation
              JOINT HandTipLeft
              {
                OFFSET 0.208522 -8.183857 1.149728
                CHANNELS 3 Zrotation Xrotation Yrotation
                End Site
                {
                  OFFSET 0 0 0
                }
              }
              JOINT ThumbLeft
              {
                OFFSET 4.215796 -0.223848 1.672294
                CHANNELS 3 Zrotation Xrotation Yrotation
                End Site
                {
                  OFFSET 0 0 0
                }
              }
            }
          }
        }
      }
      JOINT ShoulderRight
      {
        OFFSET 13.300609 -2.490576 11.201759
        CHANNELS 3 Zrotation Xrotation Yrotation
        JOINT ElbowRight
        {
          OFFSET 0.683284 -27.257604 2.575018
          CHANNELS 3 Zrotation Xrotation Yrotation
          JOINT WristRight
          {
            OFFSET 1.331829 -27.148679 1.990272
            CHANNELS 3 Zrotation Xrotation Yrotation
            JOINT HandRight
            {
              OFFSET 0.645977 -4.637549 2.979024
              CHANNELS 3 Zrotation Xrotation Yrotation
              JOINT HandTipRight
              {
                OFFSET 0.231751 -0.791828 -0.106476
                CHANNELS 3 Zrotation Xrotation Yrotation
                End Site
                {
                  OFFSET 0 0 0
                }
              }
              JOINT ThumbRight
              {
                OFFSET -0.100040 0.495816 -3.400151
                CHANNELS 3 Zrotation Xrotation Yrotation
                End Site
                {
                  OFFSET 0 0 0
                }
              }
            }
          }
        }
      }
    }
  }
  JOINT HipLeft
  {
    OFFSET -5.572554 1.480053 -8.086942
    CHANNELS 3 Zrotation Xrotation Yrotation
    JOINT KneeLeft
    {
      OFFSET -8.312888 -38.489634 -1.352654
      CHANNELS 3 Zrotation Xrotation Yrotation
      JOINT AnkleLeft
      {
        OFFSET -11.302586 -33.840747 -0.277896
        CHANNELS 3 Zrotation Xrotation Yrotation
        JOINT FootLeft
        {
          OFFSET -3.134229 -7.124044 -7.542111
          CHANNELS 3 Zrotation Xrotation Yrotation
          End Site
          {
            OFFSET 0 0 0
          }
        }
      }
    }
  }
  JOINT HipRight
  {
    OFFSET 5.743498 0.217222 0.918440
    CHANNELS 3 Zrotation Xrotation Yrotation
    JOINT KneeRight
    {
      OFFSET 0.603327 -34.958357 3.633568
      CHANNELS 3 Zrotation Xrotation Yrotation
      JOINT AnkleRight
      {
        OFFSET -5.974662 -36.433992 5.539797
        CHANNELS 3 Zrotation Xrotation Yrotation
        JOINT FootRight
        {
          OFFSET 8.895832 -2.267257 -12.641327
          CHANNELS 3 Zrotation Xrotation Yrotation
          End Site
          {
            OFFSET 0 0 0
          }
        }
      }
    }
  }
}
MOTION
Frames: 15
Frame Time: 0.033333
-13.542164 80.169796 339.482594 -1.963622 3.094467 -21.757416 -0.850842 -0.707877 21.675386 -0.426424 -0.458653 -0.181868 8.577260 -16.173714 5.413264 0.000000 0.000000 0.000000 6.837474 -0.868614 -0.836788 3.242787 6.113915 -0.819355 0.956885 -7.597772 2.121501 -3.103467 11.568392 0.673989 0.000000 0.000000 0.000000 0.000000 0.000000 0.000000 30.435737 36.236702 -4.660124 165.957477 52.381141 72.667364 -65.816438 -47.874267 118.148380 -39.422324 -70.391745 -13.789847 0.000000 0.000000 0.000000 0.000000 0.000000 0.000000 3.049685 2.433586 20.889699 2.168355 -6.606468 2.069481 -4.293726 1.611566 0.232350 0.000000 0.000000 0.000000 1.855348 -1.988732 21.733670 3.916673 -5.019608 1.415794 -6.875630 2.640594 18.111160 0.000000 0.000000 0.000000
-13.642011 79.880273 339.869562 -2.759442 2.297373 -18.906299 -1.141950 -0.976987 18.776012 -0.557654 -0.648721 -0.251653 7.945364 -15.745205 6.786120 0.000000 0.000000 0.000000 6.526889 -0.030344 -0.376555 4.378561 6.042674 -1.136271 -0.956599 -9.343842 1.944634 -1.201094 13.639825 0.449439 0.000000 0.000000 0.000000 0.000000 0.000000 0.000000 22.221461 29.472373 -1.659647 175.709527 44.131535 73.265907 -59.676944 -40.761583 116.951568 -1.225410 -77.127346 48.291007 0.000000 0.000000 0.000000 0.000000 0.000000 0.000000 3.566845 3.969289 17.867477 2.197678 -6.775988 2.079164 -3.931167 1.976054 -0.553509 0.000000 0.000000 0.000000 2.138726 -1.397055 18.851809 4.273709 -4.537621 1.416926 -8.630351 -0.008982 21.955260 0.000000 0.000000 0.000000
-13.804759 79.582800 340.337728 -3.745840 1.342746 -16.282991 -1.444997 -1.214375 16.086871 -0.640992 -0.798868 -0.324762 6.906522 -15.046055 8.345314 0.000000 0.000000 0.000000 6.114369 0.264497 0.444389 5.609835 6.148728 -1.760175 -3.168417 -10.964249 1.623483 1.003270 15.760093 0.124627 0.000000 0.000000 0.000000 0.000000 0.000000 0.000000 15.289961 24.063461 -0.055598 -176.811923 36.447226 71.707154 -53.018140 -39.564368 118.248463 37.738228 -79.500906 92.194696 0.000000 0.000000 0.000000 0.000000 0.000000 0.000000 4.189188 5.609095 15.058109 2.601522 -6.825746 2.070372 -2.885335 4.122960 -3.038872 0.000000 0.000000 0.000000 2.575267 -0.655870 16.172457 4.798341 -3.953161 1.424441 -9.351343 -0.674780 25.015216 0.000000 0.000000 0.000000
-14.068922 79.266180 340.846933 -4.883566 0.332064 -13.675254 -1.633726 -1.305904 13.403347 -0.686680 -0.887754 -0.392341 5.215417 -14.364457 10.196867 0.000000 0.000000 0.000000 5.972452 1.462441 0.791360 6.210851 4.834143 -1.695708 -5.622423 -12.927846 1.185295 3.083262 18.435043 -0.336038 0.000000 0.000000 0.000000 0.000000 0.000000 0.000000 10.113323 19.737021 0.695315 -171.741533 30.166454 77.112200 -57.582365 -32.255451 109.293553 76.657155 -81.487506 131.889924 0.000000 0.000000 0.000000 0.000000 0.000000 0.000000 4.965470 7.193416 12.255865 3.340556 -6.692877 2.027089 -1.347679 8.333046 -7.018543 0.000000 0.000000 0.000000 3.365451 0.068109 13.492948 5.263847 -3.223782 1.411049 -10.065042 -1.378581 27.510140 0.000000 0.000000 0.000000
-14.405320 78.955926 341.337723 -6.161206 -0.659446 -11.411466 -1.797229 -1.354975 11.041581 -0.701683 -0.914521 -0.459585 3.955002 -13.722558 11.876897 0.000000 0.000000 0.000000 5.316907 2.014500 1.522032 7.322249 3.637835 -1.977897 -7.599083 -14.603837 0.740872 4.592668 21.219543 -0.787560 0.000000 0.000000 0.000000 0.000000 0.000000 0.000000 6.549501 18.316210 1.090845 -167.658723 26.771536 76.156018 -57.654614 -34.424452 109.464548 128.074722 -77.836174 -177.790643 0.000000 0.000000 0.000000 0.000000 0.000000 0.000000 5.900889 8.588812 9.807057 4.341525 -6.371219 1.950413 0.993508 12.845296 -12.014633 0.000000 0.000000 0.000000 4.499236 0.737980 11.131066 5.612221 -2.412976 1.368810 -10.651623 -2.097768 28.624260 0.000000 0.000000 0.000000
-14.753456 78.710404 341.755075 -7.412656 -1.519734 -9.588332 -1.884673 -1.341153 9.113213 -0.670734 -0.869975 -0.513566 3.127771 -13.166482 13.182841 0.000000 0.000000 0.000000 4.665543 2.388380 2.200957 8.193551 2.246839 -2.185864 -9.467398 -15.506254 0.286246 6.968796 22.680589 -1.383476 0.000000 0.000000 0.000000 0.000000 0.000000 0.000000 3.380348 21.340711 1.783838 -162.392145 29.113739 76.732529 -69.682118 -30.235660 102.932005 149.675956 -66.815289 -151.403554 0.000000 0.000000 0.000000 0.000000 0.000000 0.000000 6.774765 9.594745 7.847350 5.509350 -5.840333 1.819172 4.234463 16.607626 -17.669506 0.000000 0.000000 0.000000 5.774719 1.235463 9.187933 5.877640 -1.602640 1.312932 -11.063782 -2.745871 27.721772 0.000000 0.000000 0.000000
-15.065091 78.521771 342.079024 -8.509024 -2.196761 -8.513018 -1.838281 -1.261842 7.943583 -0.583773 -0.761060 -0.544974 2.444890 -12.646932 14.078575 0.000000 0.000000 0.000000 4.054813 2.559311 2.741764 8.731041 0.823936 -2.306768 -10.963294 -15.492684 -0.060823 9.853684 23.205063 -2.077665 0.000000 0.000000 0.000000 0.000000 0.000000 0.000000 1.007461 28.326983 3.079625 -156.707039 36.320313 77.569929 -92.304740 -24.014607 96.701927 162.575048 -47.161973 -131.753176 0.000000 0.000000 0.000000 0.000000 0.000000 0.000000 7.405517 10.239188 6.699834 6.679103 -5.220841 1.656446 7.719290 19.266524 -23.107935 0.000000 0.000000 0.000000 7.010298 1.682790 7.992506 6.006319 -1.017733 1.263790 -11.231647 -3.205705 24.755345 0.000000 0.000000 0.000000
-15.287228 78.411027 342.333428 -9.279687 -2.672881 -7.787139 -1.728403 -1.147425 7.150005 -0.540057 -0.671128 -0.562265 -0.136162 -12.830952 15.963417 0.000000 0.000000 0.000000 3.168532 2.365747 3.299396 9.343848 -0.005930 -2.565415 -11.568650 -15.051332 -0.257889 11.571247 22.071651 -2.520394 0.000000 0.000000 0.000000 0.000000 0.000000 0.000000 -2.603221 32.228080 4.588936 -149.902987 40.365145 75.134857 -107.879464 -22.199658 95.183409 166.064798 -31.791343 -124.132209 0.000000 0.000000 0.000000 0.000000 0.000000 0.000000 7.719199 10.631572 5.944917 7.720627 -4.700083 1.517046 10.906339 20.678252 -27.696254 0.000000 0.000000 0.000000 7.926972 2.067750 7.171022 6.063862 -0.710194 1.234533 -11.401277 -3.567098 22.777448 0.000000 0.000000 0.000000
-15.401050 78.366846 342.479854 -9.850186 -2.975711 -7.680457 -1.488317 -0.955613 7.005248 -0.422396 -0.519136 -0.554483 -2.523275 -13.276034 17.431093 0.000000 0.000000 0.000000 2.040479 1.867925 3.774875 9.826810 -0.576410 -2.818124 -10.937490 -12.833641 -0.246531 10.457928 19.049403 -2.188945 0.000000 0.000000 0.000000 0.000000 0.000000 0.000000 -6.456817 35.539812 6.277862 -142.369841 44.084049 71.535801 -121.331181 -19.012559 94.729107 163.726721 -20.290660 -118.151387 0.000000 0.000000 0.000000 0.000000 0.000000 0.000000 7.807182 10.805549 5.859868 8.549634 -4.288963 1.403905 13.353817 21.036581 -30.976506 0.000000 0.000000 0.000000 8.615025 2.502074 6.993458 6.007344 -0.699874 1.225574 -11.408507 -3.763971 20.676354 0.000000 0.000000 0.000000
-15.371542 78.407253 342.513905 -10.192835 -3.115050 -8.196071 -1.166041 -0.756838 7.509385 -0.281658 -0.360824 -0.531518 -4.843508 -13.764911 18.554973 0.000000 0.000000 0.000000 0.952916 1.330333 4.080461 10.121256 -0.729757 -3.001638 -9.152807 -9.774385 -0.147142 8.838220 14.736431 -1.700805 0.000000 0.000000 0.000000 0.000000 0.000000 0.000000 -9.123510 38.136859 7.599392 -135.863307 47.176404 67.326346 -130.122315 -17.696571 95.264882 162.037346 -14.264761 -113.992503 0.000000 0.000000 0.000000 0.000000 0.000000 0.000000 7.686918 10.849683 6.427666 8.996435 -4.051294 1.330328 15.020336 20.234984 -32.750174 0.000000 0.000000 0.000000 8.972367 2.971531 7.467272 5.883201 -0.917226 1.231154 -11.249192 -3.843319 18.570566 0.000000 0.000000 0.000000
-15.282784 78.467925 342.536244 -10.583881 -3.317646 -8.889954 -1.019518 -0.668719 8.170663 -0.263181 -0.313254 -0.536166 -4.986309 -13.644691 18.729167 0.000000 0.000000 0.000000 0.300510 1.181585 4.356287 10.572232 -0.844693 -3.167491 -6.920584 -6.872349 -0.079159 7.111873 10.481666 -1.262440 0.000000 0.000000 0.000000 0.000000 0.000000 0.000000 -10.946104 39.557677 8.617085 -130.645088 48.768028 64.699787 -137.918541 -15.295758 96.163154 159.297401 -7.612443 -110.960786 0.000000 0.000000 0.000000 0.000000 0.000000 0.000000 7.690256 11.061852 7.130367 9.133904 -3.960099 1.292982 15.474459 17.998379 -32.488760 0.000000 0.000000 0.000000 9.308131 3.587752 8.100608 5.775550 -1.267323 1.257573 -11.131127 -3.875045 16.998393 0.000000 0.000000 0.000000
-15.065781 78.560698 342.500317 -10.856094 -3.459972 -9.905562 -0.855032 -0.587152 9.164770 -0.220783 -0.260964 -0.533262 -3.699995 -13.255889 17.994496 0.000000 0.000000 0.000000 -0.126398 1.087338 4.500176 10.922668 -0.825617 -3.277897 -4.696827 -3.078560 -0.050051 4.650879 5.813593 -0.781342 0.000000 0.000000 0.000000 0.000000 0.000000 0.000000 -12.061714 40.168398 9.173943 -127.123985 49.570646 62.930818 -143.052999 -15.449051 96.893952 157.359274 -3.044118 -107.840645 0.000000 0.000000 0.000000 0.000000 0.000000 0.000000 7.493382 11.190101 8.188338 9.147702 -3.898533 1.255962 16.512952 17.439719 -33.247919 0.000000 0.000000 0.000000 9.344780 4.186922 9.065946 5.755342 -1.646073 1.290271 -10.971310 -3.862765 15.991294 0.000000 0.000000 0.000000
-14.711734 78.664898 342.420454 -11.012520 -3.567229 -11.123539 -0.668880 -0.496773 10.371656 -0.156538 -0.224313 -0.525012 -3.196119 -12.878467 17.525446 0.000000 0.000000 0.000000 -0.111168 1.289923 4.404443 11.139936 -0.651037 -3.240004 -3.139913 0.697541 -0.045531 2.711515 0.797084 -0.447404 0.000000 0.000000 0.000000 0.000000 0.000000 0.000000 -12.122411 40.002932 9.110454 -126.930350 49.519498 62.943703 -144.785168 -17.181181 96.747699 157.888004 0.108790 -107.088201 0.000000 0.000000 0.000000 0.000000 0.000000 0.000000 7.133548 11.242698 9.475475 9.074449 -3.842285 1.213860 17.168380 17.302037 -33.576066 0.000000 0.000000 0.000000 9.002027 4.697225 10.243805 5.934900 -1.951144 1.327212 -10.792119 -3.850094 15.640628 0.000000 0.000000 0.000000
-14.289062 78.703866 342.281405 -11.049636 -3.612236 -12.171343 -0.437211 -0.362215 11.424309 -0.107025 -0.205979 -0.511730 -3.027463 -12.666150 17.161495 0.000000 0.000000 0.000000 -0.421393 1.692150 4.240770 11.820714 -0.581567 -3.162656 -1.485279 3.114022 -0.090625 -0.405626 -0.955847 -0.335576 0.000000 0.000000 0.000000 0.000000 0.000000 0.000000 -11.288441 39.380466 8.569167 -129.601216 48.937818 64.410419 -141.730435 -15.990306 96.420133 158.258230 -3.474359 -108.678687 0.000000 0.000000 0.000000 0.000000 0.000000 0.000000 6.723872 11.176122 10.606530 8.899480 -3.874078 1.200554 17.345071 17.714195 -33.430740 0.000000 0.000000 0.000000 8.555331 4.954302 11.272354 6.037278 -2.117348 1.337799 -10.542214 -3.792959 16.079625 0.000000 0.000000 0.000000
-13.795812 78.710707 342.100420 -11.012574 -3.602778 -13.199443 -0.317907 -0.294747 12.461262 -0.081057 -0.199911 -0.502836 -2.240077 -12.537778 16.580753 0.000000 0.000000 0.000000 -0.569286 2.245460 4.014450 12.507595 -0.562901 -3.015337 0.696401 4.463465 -0.198134 -2.381217 -1.455416 -0.062430 0.000000 0.000000 0.000000 0.000000 0.000000 0.000000 -10.171120 38.907257 8.019743 -131.271800 48.284774 61.641789 -144.625574 -15.109709 93.399113 157.005146 -3.409392 -108.165664 0.000000 0.000000 0.000000 0.000000 0.000000 0.000000 6.256428 11.000233 11.735479 8.685523 -3.922610 1.191302 17.581959 18.191240 -33.324550 0.000000 0.000000 0.000000 7.952904 5.030058 12.294047 6.221242 -2.134957 1.334104 -10.250638 -3.779100 16.530750 0.000000 0.000000 0.000000
